<?xml version="1.0" encoding="utf-8"?>
<!-- Generator: Adobe Illustrator 18.0.0, SVG Export Plug-In . SVG Version: 6.00 Build 0)  -->
<!DOCTYPE svg PUBLIC "-//W3C//DTD SVG 1.1//EN" "http://www.w3.org/Graphics/SVG/1.1/DTD/svg11.dtd">
<svg version="1.1" id="Layer_1" xmlns="http://www.w3.org/2000/svg" xmlns:xlink="http://www.w3.org/1999/xlink" x="0px" y="0px"
	 viewBox="0 0 200 200" enable-background="new 0 0 200 200" xml:space="preserve">
<path fill="#F47820" d="M115.6,8.5c0.7,0,1.4,0,2,0c2.1,1.8,4.4,3.4,6.3,5.4c1,1.1,1.8,1.2,3.2,1.1c5-0.4,10.2-1,15.2-0.3
	c11.8,1.6,20.8,8.3,28.1,17.4c8.2,10.4,10.8,22,7.5,34.9c-2.2,8.8-6.4,16.6-11.6,23.9c-10.4,14.9-23.5,27.2-37.4,38.8
	c-1.2,1-2.4,2-3.9,3.3c1,0.3,1.4,0.5,1.9,0.7c7.6,2,15.3,3.9,22.8,6.1c13.3,3.9,26.6,8,39.1,14.3c4.1,2.1,7.9,4.5,10.5,8.5
	c0,1.2,0,2.4,0,3.6c-1.5,3.2-2.5,6.7-4.5,9.6c-5.5,7.8-13.3,12.4-22.5,14.8c-1.7,0.4-3.5,0.8-5.2,1.1c-1,0-2,0-3.1,0
	c0.2-0.5,0.2-1.2,0.6-1.5c1.8-1.3,3.6-2.5,5.5-3.7c6-3.9,6.2-5.4,1-10.6c-5.3-5.3-11.6-9.1-18.4-12.2c-17.6-8.1-36.2-12.8-55-17
	c-1.1-0.2-2.4-0.1-3.4,0.2c-11.2,3.7-22.7,5.7-34.5,4.8c-13.1-1-23.9-6-31.3-17.3c-0.5-0.8-1.8-1.5-2.8-1.5c-5.5,0-9.7,2.5-13.1,6.6
	c-5.2,6.3-8,6.1-11.9-0.9c0-0.9,0-1.7,0-2.6c5.1-10.1,14.7-11.2,24.6-12.2c0-0.8,0-1.7,0-2.6c0.2-4,0.1-8,0.7-11.9
	c2.5-16.8,9-32.1,19.7-45.2C65,40.6,86.8,20.1,115.6,8.5z M41.1,121.6c0.3,0.1,0.4,0.3,0.6,0.3c2,0,3.9,0,5.9,0
	c14.2-0.1,28.1,1.5,41.5,6.3c0.8,0.3,2.2,0,3-0.6c4.8-3.4,9.5-6.8,14.1-10.5c15.3-12.4,29.1-26.3,39.5-43.3
	c4.1-6.7,7.3-13.8,8.6-21.6c1.6-9.6-2.9-17.1-12.4-19.5c-9.1-2.3-18.2-1.2-27,1.9C102.5,39,92.5,46.7,83.5,55.9
	c-18.2,18.7-31.2,40.8-42,64.3C41.3,120.7,41.3,121.2,41.1,121.6z M62,138.3c-6.2-2.3-12.1-4.2-18.5-4.4
	C43.6,139,55.1,140.7,62,138.3z"/>
</svg>
